<svg xmlns="http://www.w3.org/2000/svg" fill="none" viewBox="0 0 128 128"><g id="wind-snow__wind-snow"><g id="wind-snow__Wind"><path id="wind-snow__Wind Line 1" stroke="#e2e8f0" stroke-dasharray="50" stroke-linecap="round" stroke-miterlimit="10" stroke-width="4" d="M87.79 40.135c6.186-6.788 17.21-1.73 17.21 7.311C105 53.275 100.522 58 95 58H24"><animate attributeName="stroke-dashoffset" begin="0s" dur="6s" repeatCount="indefinite" values="0;1000"/></path><path id="wind-snow__Wind Line 1_2" stroke="#e2e8f0" stroke-dasharray="50" stroke-linecap="round" stroke-miterlimit="10" stroke-width="4" d="M60.128 87.868C66.42 94.518 78 89.872 78 80.556 78 74.726 73.35 70 67.615 70H24"><animate attributeName="stroke-dashoffset" begin="-5.8s" dur="6s" repeatCount="indefinite" values="0;1000"/></path></g><g id="wind-snow__Snowflakes"><path id="wind-snow__Snowflake 1" fill="#86c3db" d="m66.578 49.366-1.204-.688a2.9 2.9 0 0 0-.003-1.354l1.207-.69a.83.83 0 0 0 .309-1.141.85.85 0 0 0-1.153-.306l-1.206.69a2.9 2.9 0 0 0-1.184-.678V43.82A.85.85 0 0 0 62.5 43a.843.843 0 0 0-.844.82v1.38a2.96 2.96 0 0 0-1.185.674l-1.205-.689a.848.848 0 0 0-1.259.616.83.83 0 0 0 .415.832l1.204.689c-.106.445-.105.908.003 1.353l-1.207.69a.83.83 0 0 0-.415.832.83.83 0 0 0 .62.7.85.85 0 0 0 .64-.084l1.205-.69c.334.318.74.55 1.184.675v1.382a.85.85 0 0 0 .844.82.843.843 0 0 0 .844-.82v-1.383c.441-.129.847-.36 1.184-.673l1.206.69a.847.847 0 0 0 1.259-.616.83.83 0 0 0-.415-.832m-4.712-.28a1.24 1.24 0 0 1-.622-1.25 1.25 1.25 0 0 1 .93-1.048 1.27 1.27 0 0 1 1.329.445 1.25 1.25 0 0 1 .093 1.393 1.28 1.28 0 0 1-1.73.46"><animateTransform attributeName="transform" begin="-0.8s" calcMode="spline" dur="1s" keySplines=".42 0 1 1" repeatCount="indefinite" type="translate" values="0 0;0 20"/><animate attributeName="opacity" begin="-0.8s" dur="1s" keyTimes="0;0.15;0.85;1" repeatCount="indefinite" values="0;1;1;0"/></path><path id="wind-snow__Snowflake 2" fill="#86c3db" d="m87.578 69.366-1.204-.689a2.9 2.9 0 0 0-.003-1.353l1.207-.69a.83.83 0 0 0 .309-1.141.85.85 0 0 0-1.153-.306l-1.206.69a2.9 2.9 0 0 0-1.184-.677v-1.38A.85.85 0 0 0 83.5 63a.843.843 0 0 0-.844.82v1.38a2.96 2.96 0 0 0-1.185.674l-1.205-.689a.848.848 0 0 0-1.259.616.83.83 0 0 0 .415.832l1.204.689c-.106.445-.105.909.003 1.353l-1.207.69a.83.83 0 0 0-.415.832.83.83 0 0 0 .62.7.85.85 0 0 0 .64-.084l1.205-.69c.334.318.74.55 1.184.675v1.382a.85.85 0 0 0 .844.82.843.843 0 0 0 .844-.82v-1.383c.441-.129.847-.36 1.184-.673l1.206.69a.847.847 0 0 0 1.259-.616.83.83 0 0 0-.415-.832m-4.712-.28a1.24 1.24 0 0 1-.622-1.25 1.25 1.25 0 0 1 .93-1.048 1.27 1.27 0 0 1 1.329.445 1.25 1.25 0 0 1 .093 1.393 1.28 1.28 0 0 1-1.73.46"><animateTransform attributeName="transform" begin="-0.30000000000000004s" calcMode="spline" dur="1s" keySplines=".42 0 1 1" repeatCount="indefinite" type="translate" values="0 0;0 20"/><animate attributeName="opacity" begin="-0.30000000000000004s" dur="1s" keyTimes="0;0.15;0.85;1" repeatCount="indefinite" values="0;1;1;0"/></path><path id="wind-snow__Snowflake 3" fill="#86c3db" d="m48.578 81.366-1.205-.689a2.9 2.9 0 0 0-.002-1.353l1.207-.69a.83.83 0 0 0 .309-1.141.85.85 0 0 0-1.153-.306l-1.206.69a2.9 2.9 0 0 0-1.184-.677v-1.38A.85.85 0 0 0 44.5 75a.843.843 0 0 0-.844.82v1.38a2.96 2.96 0 0 0-1.185.674l-1.205-.689a.848.848 0 0 0-1.259.616.83.83 0 0 0 .415.832l1.204.689c-.106.445-.105.909.003 1.353l-1.207.69a.83.83 0 0 0-.415.832.83.83 0 0 0 .62.7.85.85 0 0 0 .64-.084l1.205-.69c.334.318.74.55 1.184.675v1.382a.85.85 0 0 0 .844.82.843.843 0 0 0 .844-.82v-1.383c.441-.129.847-.36 1.184-.673l1.206.69a.847.847 0 0 0 1.259-.616.83.83 0 0 0-.415-.832m-4.712-.28a1.24 1.24 0 0 1-.622-1.25 1.25 1.25 0 0 1 .93-1.048 1.27 1.27 0 0 1 1.329.445 1.25 1.25 0 0 1 .093 1.393 1.28 1.28 0 0 1-1.73.46"><animateTransform attributeName="transform" begin="-0.8s" calcMode="spline" dur="1s" keySplines=".42 0 1 1" repeatCount="indefinite" type="translate" values="0 0;0 20"/><animate attributeName="opacity" begin="-0.8s" dur="1s" keyTimes="0;0.15;0.85;1" repeatCount="indefinite" values="0;1;1;0"/></path></g></g></svg>